<?xml version="1.0" encoding="UTF-8" standalone="no"?>
<svg
   width="120"
   height="120"
   viewBox="0 0 120 120"
   version="1.1"
   id="svg6"
   sodipodi:docname="icon-bw.svg"
   inkscape:version="1.4.2 (f4327f4, 2025-05-13)"
   xmlns:inkscape="http://www.inkscape.org/namespaces/inkscape"
   xmlns:sodipodi="http://sodipodi.sourceforge.net/DTD/sodipodi-0.dtd"
   xmlns="http://www.w3.org/2000/svg"
   xmlns:svg="http://www.w3.org/2000/svg">
  <sodipodi:namedview
     id="namedview6"
     pagecolor="#ffffff"
     bordercolor="#000000"
     borderopacity="0.25"
     inkscape:showpageshadow="2"
     inkscape:pageopacity="0.0"
     inkscape:pagecheckerboard="0"
     inkscape:deskcolor="#d1d1d1"
     inkscape:zoom="4.6374422"
     inkscape:cx="13.585075"
     inkscape:cy="55.741935"
     inkscape:window-width="1920"
     inkscape:window-height="1001"
     inkscape:window-x="-9"
     inkscape:window-y="-9"
     inkscape:window-maximized="1"
     inkscape:current-layer="svg6" />
  <defs
     id="defs2">
    <linearGradient
       id="mainGrad"
       x1="36.742346"
       y1="24.494897"
       x2="85.732141"
       y2="73.484692"
       gradientTransform="matrix(1.3742457,0,0,1.7476348,-19.151207,-23.329098)"
       gradientUnits="userSpaceOnUse">
      <stop
         offset="0"
         style="stop-color:#2d5281;stop-opacity:1;"
         id="stop1" />
      <stop
         offset="1"
         style="stop-color:#5688c5;stop-opacity:1;"
         id="stop2" />
    </linearGradient>
    <linearGradient
       id="mainGrad-0"
       x1="36.742348"
       y1="24.494898"
       x2="85.73214"
       y2="73.484695"
       gradientTransform="matrix(1.3083051,0,0,1.6637779,-15.734079,-14.913373)"
       gradientUnits="userSpaceOnUse">
      <stop
         offset="0"
         style="stop-color:#2d5281;stop-opacity:1;"
         id="stop1-09" />
      <stop
         offset="1"
         style="stop-color:#5688c5;stop-opacity:1;"
         id="stop2-4" />
    </linearGradient>
  </defs>
  <!-- 主要图形 - 层叠的L形状 -->
  <!-- 装饰点 -->
  <path
     d="M 67.036353,8.8220186 V 21.452431 q -2.171091,-2.198332 -4.236278,-3.317482 -2.065187,-1.11915 -3.900908,-1.11915 -2.435862,0 -3.600838,1.518847 -1.164978,1.518848 -1.164978,4.71642 0,2.39818 0.776651,3.757148 0.794303,1.318999 2.85949,2.278271 l 2.894792,1.318999 q 4.395141,1.998482 6.248512,6.075388 1.853376,4.076905 1.853376,11.591202 0,9.872506 -2.594724,14.708835 -2.57707,4.796359 -7.890072,4.796359 -2.506466,0 -5.030583,-1.07918 -2.524118,-1.079182 -5.048235,-3.197574 v -12.99014 q 2.524117,3.037695 4.871723,4.596511 2.365256,1.518848 4.554001,1.518848 2.224048,0 3.406676,-1.678727 1.182629,-1.678725 1.182629,-4.796359 0,-2.797875 -0.811954,-4.316723 -0.794303,-1.518847 -3.194862,-2.717937 l -2.630024,-1.318999 q -3.953862,-1.918543 -5.789583,-6.115357 -1.81807,-4.196815 -1.81807,-11.311415 0,-8.913233 2.541768,-13.709593 2.541768,-4.7963593 7.307584,-4.7963593 2.171093,0 4.465745,0.7594235 2.294652,0.7194539 4.748162,2.1983314 z M 84.387456,33.403359 q 2.13579,0 3.053651,-1.798634 0.935514,-1.798635 0.935514,-5.91551 0,-4.076906 -0.935514,-5.83557 -0.917861,-1.758666 -3.053651,-1.758666 h -2.859492 v 15.30838 z M 81.527964,44.03529 V 66.618148 H 74.732269 V 6.9434446 h 10.378882 q 5.207094,0 7.625306,3.9569964 2.435866,3.956996 2.435866,12.510504 0,5.91551 -1.270884,9.712628 -1.253238,3.797118 -3.795007,5.595752 1.394442,0.719453 2.488814,3.277511 1.112027,2.518089 2.2417,7.674176 l 3.689097,16.947136 H 91.289061 L 88.076552,51.789404 Q 87.105737,47.312802 86.09962,45.674045 85.111151,44.03529 83.451941,44.03529 Z"
     id="text3"
     style="font-weight:bold;font-size:52.9735px;font-family:Sans;-inkscape-font-specification:'Sans, Bold';opacity:1;fill:#ffffff;fill-opacity:1;stroke:#000000;stroke-width:1.02689;stroke-dasharray:none;stroke-opacity:1"
     inkscape:label="text3"
     aria-label="SR" />
  <path
     d="m 75.909697,14.769761 v 12.630412 q -2.171091,-2.198331 -4.236279,-3.317482 -2.065188,-1.11915 -3.900909,-1.11915 -2.435861,0 -3.600838,1.518847 -1.164977,1.518848 -1.164977,4.71642 0,2.39818 0.776651,3.757149 0.794303,1.318999 2.85949,2.27827 l 2.894793,1.318999 q 4.395137,1.998483 6.248513,6.075389 1.853375,4.076904 1.853375,11.591201 0,9.872506 -2.594724,14.708835 -2.57707,4.79636 -7.890075,4.79636 -2.506464,0 -5.030582,-1.079182 -2.524117,-1.079181 -5.048234,-3.197573 V 56.458117 q 2.524117,3.037693 4.871723,4.59651 2.365256,1.518848 4.554001,1.518848 2.224046,0 3.406674,-1.678726 1.182629,-1.678725 1.182629,-4.79636 0,-2.797875 -0.811951,-4.316723 -0.794304,-1.518847 -3.194862,-2.717937 L 64.45409,47.74473 q -3.953862,-1.918543 -5.789584,-6.115358 -1.81807,-4.196814 -1.81807,-11.311413 0,-8.913235 2.541768,-13.709595 2.541769,-4.796358 7.307586,-4.796358 2.171091,0 4.465746,0.759423 2.294649,0.719454 4.748161,2.198332 z M 93.2608,39.351101 q 2.13579,0 3.053651,-1.798634 0.935514,-1.798635 0.935514,-5.915509 0,-4.076906 -0.935514,-5.835571 Q 95.39659,24.042722 93.2608,24.042722 h -2.859492 v 15.308379 z m -2.859492,10.63193 V 72.565889 H 83.605606 V 12.891187 h 10.378889 q 5.207095,0 7.625305,3.956996 2.43586,3.956997 2.43586,12.510504 0,5.91551 -1.27088,9.712628 -1.25323,3.797116 -3.795003,5.595752 1.394443,0.719453 2.488813,3.277512 1.11203,2.518089 2.2417,7.674175 l 3.6891,16.947135 h -7.23698 L 96.94989,57.737146 q -0.970809,-4.476602 -1.976926,-6.115358 -0.988469,-1.638757 -2.647679,-1.638757 z"
     id="text2"
     style="font-weight:bold;font-size:52.9735px;font-family:Sans;-inkscape-font-specification:'Sans, Bold';opacity:1;fill:#ffffff;fill-opacity:1;stroke:#000000;stroke-width:1.02689;stroke-dasharray:none;stroke-opacity:1"
     aria-label="SR" />
  <path
     d="m 84.137046,21.74522 v 12.630414 q -2.171091,-2.198333 -4.236279,-3.317483 -2.065188,-1.11915 -3.90091,-1.11915 -2.435859,0 -3.60084,1.518847 -1.164975,1.518848 -1.164975,4.71642 0,2.39818 0.77665,3.757148 0.794304,1.318999 2.859492,2.278271 l 2.894793,1.318999 q 4.395137,1.998482 6.248512,6.075388 1.853368,4.076905 1.853368,11.591201 0,9.872507 -2.594717,14.708836 -2.57707,4.796359 -7.890074,4.796359 -2.506468,0 -5.030583,-1.07918 -2.524115,-1.079183 -5.048235,-3.197574 v -12.99014 q 2.52412,3.037695 4.871723,4.596511 2.365257,1.518848 4.554002,1.518848 2.224046,0 3.406674,-1.678727 1.182629,-1.678725 1.182629,-4.796359 0,-2.797875 -0.811951,-4.316723 -0.794303,-1.518847 -3.194861,-2.717937 L 72.681439,54.72019 q -3.953864,-1.918543 -5.789586,-6.115357 -1.81807,-4.196815 -1.81807,-11.311415 0,-8.913233 2.541765,-13.709592 2.541769,-4.79636 7.307584,-4.79636 2.171098,0 4.465746,0.759423 2.294655,0.719454 4.748168,2.198331 z m 17.351104,24.581341 q 2.13579,0 3.05365,-1.798634 0.93551,-1.798634 0.93551,-5.91551 0,-4.076906 -0.93551,-5.83557 -0.91786,-1.758666 -3.05365,-1.758666 h -2.859493 v 15.30838 z M 98.628657,56.958492 V 79.54135 H 91.832955 V 19.866647 h 10.378885 q 5.2071,0 7.62531,3.956995 2.43586,3.956997 2.43586,12.510505 0,5.91551 -1.27089,9.712628 -1.25323,3.797118 -3.795,5.595752 1.39445,0.719453 2.48882,3.277511 1.11203,2.518089 2.2417,7.674176 l 3.68909,16.947136 h -7.23698 l -3.21251,-14.828744 q -0.97082,-4.476602 -1.97693,-6.115359 -0.98847,-1.638755 -2.64768,-1.638755 z"
     id="text1"
     style="font-weight:bold;font-size:52.9735px;font-family:Sans;-inkscape-font-specification:'Sans, Bold';opacity:1;fill:#ffffff;fill-opacity:1;stroke:#000000;stroke-width:1.02689;stroke-dasharray:none;stroke-opacity:1"
     aria-label="SR" />
  <path
     d="m 16.312722,12.256006 v 81.508131 h 48.0702 V 73.387104 H 40.34782 V 12.256006 Z"
     fill="#1a202c"
     opacity="0.3"
     id="path2"
     style="stroke-width:1;fill:#ffffff;fill-opacity:1;opacity:1;stroke:#000000;stroke-opacity:1;stroke-dasharray:none" />
  <path
     d="M 24.324421,19.048348 V 100.55648 H 72.394622 V 80.179449 H 48.359519 V 19.048348 Z"
     fill="#2d3748"
     opacity="0.6"
     id="path3"
     style="stroke-width:1;fill:#ffffff;fill-opacity:1;opacity:1;stroke:#000000;stroke-opacity:1;stroke-dasharray:none" />
  <path
     d="m 32.336121,25.840693 v 81.508137 h 64.0936 V 86.971791 H 56.371222 V 25.840693 Z"
     fill="url(#mainGrad)"
     id="path4"
     style="fill:#ffffff;stroke-width:1;fill-opacity:1;opacity:1;stroke:#000000;stroke-opacity:1;stroke-dasharray:none" />
</svg>
