<?xml version="1.0" encoding="UTF-8" standalone="no"?>
<svg
   width="120"
   height="120"
   viewBox="0 0 120 120"
   version="1.1"
   id="svg6"
   sodipodi:docname="icon-W.svg"
   inkscape:version="1.4.2 (f4327f4, 2025-05-13)"
   xmlns:inkscape="http://www.inkscape.org/namespaces/inkscape"
   xmlns:sodipodi="http://sodipodi.sourceforge.net/DTD/sodipodi-0.dtd"
   xmlns="http://www.w3.org/2000/svg"
   xmlns:svg="http://www.w3.org/2000/svg">
  <sodipodi:namedview
     id="namedview6"
     pagecolor="#ffffff"
     bordercolor="#000000"
     borderopacity="0.25"
     inkscape:showpageshadow="2"
     inkscape:pageopacity="0.0"
     inkscape:pagecheckerboard="0"
     inkscape:deskcolor="#d1d1d1"
     inkscape:zoom="13.116667"
     inkscape:cx="66.022869"
     inkscape:cy="53.862768"
     inkscape:window-width="1920"
     inkscape:window-height="1001"
     inkscape:window-x="-9"
     inkscape:window-y="-9"
     inkscape:window-maximized="1"
     inkscape:current-layer="svg6" />
  <defs
     id="defs2">
    <linearGradient
       id="mainGrad"
       x1="36.742346"
       y1="24.494897"
       x2="85.732141"
       y2="73.484692"
       gradientTransform="matrix(1.3742457,0,0,1.7476348,-19.151207,-23.329098)"
       gradientUnits="userSpaceOnUse">
      <stop
         offset="0"
         style="stop-color:#2d5281;stop-opacity:1;"
         id="stop1" />
      <stop
         offset="1"
         style="stop-color:#5688c5;stop-opacity:1;"
         id="stop2" />
    </linearGradient>
    <linearGradient
       id="mainGrad-0"
       x1="36.742348"
       y1="24.494898"
       x2="85.73214"
       y2="73.484695"
       gradientTransform="matrix(1.3083051,0,0,1.6637779,-15.734079,-14.913373)"
       gradientUnits="userSpaceOnUse">
      <stop
         offset="0"
         style="stop-color:#2d5281;stop-opacity:1;"
         id="stop1-09" />
      <stop
         offset="1"
         style="stop-color:#5688c5;stop-opacity:1;"
         id="stop2-4" />
    </linearGradient>
  </defs>
  <!-- 主要图形 - 层叠的L形状 -->
  <!-- 装饰点 -->
  <path
     d="m 114.46501,10.311241 v 8.173645 q -3.18151,-1.422628 -6.20783,-2.146875 -3.02632,-0.724247 -5.71638,-0.724247 -3.569503,0 -5.276656,0.982907 -1.707154,0.982907 -1.707154,3.052184 0,1.551958 1.138102,2.431401 1.163969,0.853577 4.190288,1.47436 l 4.24202,0.853577 q 6.44062,1.293298 9.15655,3.931627 2.71593,2.638328 2.71593,7.50113 0,6.388894 -3.8023,9.518676 -3.77643,3.103916 -11.56209,3.103916 -3.672965,0 -7.371799,-0.698382 -3.698833,-0.698381 -7.397666,-2.069277 v -8.406439 q 3.698833,1.965813 7.139007,2.974586 3.466039,0.982907 6.673418,0.982907 3.25911,0 4.99213,-1.086371 1.73302,-1.08637 1.73302,-3.103916 0,-1.810617 -1.18983,-2.793524 -1.16397,-0.982907 -4.68174,-1.758886 l -3.854031,-0.853577 q -5.793976,-1.241566 -8.484037,-3.957493 -2.664195,-2.715926 -2.664195,-7.320068 0,-5.768111 3.7247,-8.872027 3.724699,-3.1039155 10.708513,-3.1039155 3.18151,0 6.54409,0.4914533 3.36257,0.4655874 6.95794,1.4226282 z m 25.42625,15.907569 q 3.12978,0 4.47481,-1.163968 1.3709,-1.163969 1.3709,-3.828163 0,-2.638329 -1.3709,-3.776431 -1.34503,-1.138103 -4.47481,-1.138103 h -4.19029 v 9.906665 z m -4.19029,6.880347 v 14.614271 h -9.9584 V 9.0955406 h 15.20919 q 7.63046,0 11.1741,2.5607304 3.5695,2.560731 3.5695,8.096048 0,3.828163 -1.86235,6.28543 -1.83648,2.457266 -5.56118,3.621235 2.04341,0.465587 3.6471,2.121009 1.62956,1.629556 3.28498,4.966266 l 5.40599,10.967169 h -10.60505 l -4.70761,-9.596273 q -1.42262,-2.896988 -2.89698,-3.957493 -1.4485,-1.060505 -3.8799,-1.060505 z"
     id="text2"
     style="font-weight:bold;font-size:52.9735px;font-family:Sans;-inkscape-font-specification:'Sans, Bold';fill:#ffffff;stroke-width:3.973;stroke-opacity:0"
     transform="scale(0.66454058,1.504799)"
     aria-label="SR" />
  <path
     d="M 24.324421,19.048348 V 100.55648 H 72.394622 V 80.179449 H 48.359519 V 19.048348 Z"
     fill="#2d3748"
     opacity="0.6"
     id="path3"
     style="stroke-width:1.47537;fill:#ffffff;fill-opacity:1;opacity:1" />
</svg>
